<svg xmlns="http://www.w3.org/2000/svg" viewBox="0 0 640 400" width="640" height="400">
  <defs>
    <linearGradient id="bg2" x1="0" y1="0" x2="1" y2="1">
      <stop offset="0%" stop-color="#0A2540" />
      <stop offset="50%" stop-color="#003DA5" />
      <stop offset="100%" stop-color="#001F5C" />
    </linearGradient>
    <linearGradient id="goldGrad" x1="0" y1="0" x2="1" y2="0">
      <stop offset="0%" stop-color="#FFD400" />
      <stop offset="100%" stop-color="#FFA000" />
    </linearGradient>
  </defs>

  <rect width="640" height="400" fill="url(#bg2)" />
  <circle cx="320" cy="200" r="160" stroke="#FFFFFF" stroke-width="1.5" stroke-dasharray="4 4" fill="none" opacity="0.25" />
  <circle cx="320" cy="200" r="110" stroke="#FFFFFF" stroke-width="1.5" fill="none" opacity="0.2" />

  <path d="M220,200 A100,100 0 0,1 420,200" stroke="#FFD400" stroke-width="2.5" fill="none" opacity="0.6" />
  <path d="M250,200 A70,70 0 0,0 390,200" stroke="#E31C23" stroke-width="2" fill="none" opacity="0.6" />

  <g transform="translate(250, 120)">
    <polygon points="70,0 140,40 140,120 70,160 0,120 0,40" fill="#FFFFFF" opacity="0.1" />
    <polygon points="70,10 130,45 130,115 70,150 10,115 10,45" fill="#003DA5" opacity="0.4" />
    <line x1="70" y1="10" x2="70" y2="150" stroke="#FFFFFF" stroke-width="1.5" opacity="0.3" />
    <line x1="70" y1="80" x2="10" y2="45" stroke="#FFFFFF" stroke-width="1.5" opacity="0.3" />
    <line x1="70" y1="80" x2="130" y2="45" stroke="#FFFFFF" stroke-width="1.5" opacity="0.3" />
    <circle cx="70" cy="80" r="14" fill="url(#goldGrad)" />
  </g>

  <g transform="translate(100, 260)">
    <rect x="0" y="30" width="40" height="50" rx="4" fill="#3182CE" opacity="0.7" />
    <rect x="60" y="10" width="40" height="70" rx="4" fill="#FFD400" opacity="0.85" />
    <rect x="120" y="40" width="40" height="40" rx="4" fill="#E31C23" opacity="0.7" />
    <rect x="180" y="0" width="40" height="80" rx="4" fill="#63B3ED" opacity="0.9" />
  </g>

  <g transform="translate(380, 260)">
    <rect x="0" y="20" width="45" height="60" rx="4" fill="#FFFFFF" opacity="0.15" />
    <rect x="60" y="0" width="45" height="80" rx="4" fill="#3182CE" opacity="0.8" />
    <rect x="120" y="35" width="45" height="45" rx="4" fill="#FFD400" opacity="0.8" />
  </g>
</svg>
